<svg width="1064" height="287" viewBox="0 0 1064 287" fill="none" xmlns="http://www.w3.org/2000/svg">
<path d="M415.509 132.771H379.425V149.324H411.017V161.824H379.425V192H364.483V120.125H415.509V132.771ZM424.786 120.027H438.702V192H424.786V120.027ZM496.71 145.516C501.202 151.147 503.448 157.804 503.448 165.486C503.448 173.299 501.202 179.988 496.71 185.555C492.218 191.089 485.398 193.855 476.251 193.855C467.104 193.855 460.284 191.089 455.792 185.555C451.3 179.988 449.054 173.299 449.054 165.486C449.054 157.804 451.3 151.147 455.792 145.516C460.284 139.884 467.104 137.068 476.251 137.068C485.398 137.068 492.218 139.884 496.71 145.516ZM476.202 148.836C472.133 148.836 468.992 150.285 466.778 153.182C464.597 156.046 463.507 160.148 463.507 165.486C463.507 170.825 464.597 174.943 466.778 177.84C468.992 180.737 472.133 182.186 476.202 182.186C480.271 182.186 483.396 180.737 485.577 177.84C487.758 174.943 488.849 170.825 488.849 165.486C488.849 160.148 487.758 156.046 485.577 153.182C483.396 150.285 480.271 148.836 476.202 148.836ZM553.839 192L545.489 153.23L537.042 192H522.589L507.647 138.777H522.589L530.89 176.961L538.556 138.777H552.667L560.772 177.107L569.073 138.777H583.575L568.145 192H553.839ZM618.536 181.6C622.084 181.6 624.965 181.209 627.179 180.428C631.378 178.93 633.477 176.147 633.477 172.078C633.477 169.702 632.436 167.863 630.352 166.561C628.269 165.291 624.998 164.168 620.538 163.191L612.921 161.482C605.434 159.79 600.258 157.951 597.393 155.965C592.543 152.645 590.118 147.452 590.118 140.389C590.118 133.943 592.462 128.589 597.149 124.324C601.837 120.06 608.722 117.928 617.804 117.928C625.388 117.928 631.85 119.946 637.188 123.982C642.559 127.986 645.375 133.813 645.636 141.463H631.183C630.922 137.133 629.034 134.057 625.518 132.234C623.175 131.03 620.261 130.428 616.778 130.428C612.905 130.428 609.812 131.209 607.501 132.771C605.19 134.334 604.034 136.515 604.034 139.314C604.034 141.886 605.173 143.807 607.452 145.076C608.917 145.923 612.042 146.915 616.827 148.055L629.229 151.033C634.666 152.335 638.767 154.077 641.534 156.258C645.831 159.643 647.979 164.542 647.979 170.955C647.979 177.531 645.457 182.999 640.411 187.361C635.398 191.691 628.302 193.855 619.122 193.855C609.747 193.855 602.374 191.723 597.003 187.459C591.632 183.162 588.946 177.27 588.946 169.783H603.302C603.757 173.071 604.653 175.529 605.987 177.156C608.429 180.118 612.612 181.6 618.536 181.6ZM702.569 144.49C706.866 149.08 709.015 155.818 709.015 164.705C709.015 174.08 706.899 181.225 702.667 186.141C698.468 191.056 693.048 193.514 686.407 193.514C682.175 193.514 678.66 192.456 675.86 190.34C674.33 189.168 672.833 187.459 671.368 185.213V212.947H657.599V138.777H670.929V146.639C672.426 144.327 674.021 142.505 675.714 141.17C678.806 138.794 682.485 137.605 686.749 137.605C692.966 137.605 698.24 139.9 702.569 144.49ZM694.659 165.389C694.659 161.287 693.715 157.658 691.827 154.5C689.972 151.342 686.944 149.764 682.745 149.764C677.699 149.764 674.233 152.156 672.345 156.941C671.368 159.48 670.88 162.703 670.88 166.609C670.88 172.794 672.524 177.14 675.811 179.646C677.765 181.111 680.076 181.844 682.745 181.844C686.619 181.844 689.565 180.346 691.583 177.352C693.634 174.357 694.659 170.369 694.659 165.389ZM721.124 144.539C724.802 139.852 731.117 137.508 740.069 137.508C745.896 137.508 751.072 138.663 755.597 140.975C760.121 143.286 762.384 147.648 762.384 154.061V178.475C762.384 180.167 762.416 182.218 762.481 184.627C762.579 186.45 762.856 187.687 763.311 188.338C763.767 188.989 764.451 189.526 765.362 189.949V192H750.226C749.802 190.926 749.509 189.917 749.347 188.973C749.184 188.029 749.054 186.954 748.956 185.75C747.035 187.833 744.822 189.607 742.315 191.072C739.321 192.798 735.935 193.66 732.159 193.66C727.341 193.66 723.354 192.293 720.196 189.559C717.071 186.792 715.509 182.885 715.509 177.84C715.509 171.297 718.031 166.561 723.077 163.631C725.844 162.036 729.913 160.896 735.284 160.213L740.02 159.627C742.592 159.301 744.431 158.895 745.538 158.406C747.524 157.56 748.517 156.242 748.517 154.451C748.517 152.27 747.752 150.773 746.222 149.959C744.724 149.113 742.511 148.689 739.581 148.689C736.293 148.689 733.966 149.503 732.599 151.131C731.622 152.335 730.971 153.963 730.645 156.014H717.218C717.511 151.359 718.813 147.534 721.124 144.539ZM731.476 181.941C732.778 183.016 734.373 183.553 736.261 183.553C739.255 183.553 742.006 182.674 744.513 180.916C747.052 179.158 748.37 175.952 748.468 171.297V166.121C747.589 166.674 746.694 167.13 745.782 167.488C744.903 167.814 743.683 168.123 742.12 168.416L738.995 169.002C736.065 169.523 733.966 170.158 732.696 170.906C730.548 172.176 729.474 174.145 729.474 176.814C729.474 179.191 730.141 180.9 731.476 181.941ZM820.831 157.869H806.573C806.313 155.883 805.645 154.093 804.571 152.498C803.009 150.35 800.584 149.275 797.296 149.275C792.608 149.275 789.402 151.603 787.677 156.258C786.765 158.732 786.309 162.02 786.309 166.121C786.309 170.027 786.765 173.169 787.677 175.545C789.337 179.972 792.462 182.186 797.052 182.186C800.307 182.186 802.618 181.307 803.985 179.549C805.352 177.791 806.183 175.512 806.476 172.713H820.684C820.359 176.945 818.829 180.949 816.095 184.725C811.733 190.812 805.271 193.855 796.71 193.855C788.149 193.855 781.85 191.316 777.813 186.238C773.777 181.16 771.759 174.568 771.759 166.463C771.759 157.316 773.989 150.203 778.448 145.125C782.908 140.047 789.06 137.508 796.905 137.508C803.578 137.508 809.031 139.005 813.263 142C817.527 144.995 820.05 150.285 820.831 157.869ZM876.007 176.375C875.649 179.533 874.005 182.739 871.075 185.994C866.518 191.17 860.138 193.758 851.934 193.758C845.164 193.758 839.19 191.577 834.015 187.215C828.839 182.853 826.251 175.757 826.251 165.926C826.251 156.714 828.578 149.65 833.233 144.734C837.921 139.819 843.992 137.361 851.446 137.361C855.873 137.361 859.861 138.191 863.409 139.852C866.957 141.512 869.887 144.132 872.198 147.713C874.281 150.87 875.632 154.533 876.251 158.699C876.609 161.141 876.755 164.656 876.69 169.246H840.265C840.46 174.585 842.136 178.328 845.294 180.477C847.214 181.811 849.526 182.479 852.227 182.479C855.092 182.479 857.42 181.665 859.21 180.037C860.186 179.158 861.049 177.938 861.798 176.375H876.007ZM862.237 160.066C862.009 156.388 860.886 153.605 858.868 151.717C856.882 149.796 854.408 148.836 851.446 148.836C848.224 148.836 845.717 149.845 843.927 151.863C842.169 153.882 841.062 156.616 840.606 160.066H862.237Z" fill="white"/>
<g filter="url(#filter0_d_9_11)">
<line x1="10" y1="-10" x2="199.336" y2="-10" transform="matrix(-0.979666 -0.200634 0.198916 -0.980017 288.722 213)" stroke="url(#paint0_linear_9_11)" stroke-width="20" stroke-linecap="round"/>
</g>
<g filter="url(#filter1_d_9_11)">
<line x1="10" y1="-10" x2="189.35" y2="-10" transform="matrix(-0.833981 0.551794 -0.548358 -0.836244 239.941 45)" stroke="url(#paint1_linear_9_11)" stroke-width="20" stroke-linecap="round"/>
</g>
<g filter="url(#filter2_d_9_11)">
<ellipse cx="53.7766" cy="179" rx="49.7766" ry="50" fill="white"/>
</g>
<g filter="url(#filter3_d_9_11)">
<ellipse cx="274.785" cy="229" rx="49.7766" ry="50" fill="white"/>
</g>
<g filter="url(#filter4_d_9_11)">
<ellipse cx="239.941" cy="50" rx="49.7766" ry="50" fill="#FFFCFC"/>
</g>
<defs>
<filter id="filter0_d_9_11" x="77.4515" y="172.801" width="213.483" height="65.9982" filterUnits="userSpaceOnUse" color-interpolation-filters="sRGB">
<feFlood flood-opacity="0" result="BackgroundImageFix"/>
<feColorMatrix in="SourceAlpha" type="matrix" values="0 0 0 0 0 0 0 0 0 0 0 0 0 0 0 0 0 0 127 0" result="hardAlpha"/>
<feOffset dy="4"/>
<feGaussianBlur stdDeviation="2"/>
<feComposite in2="hardAlpha" operator="out"/>
<feColorMatrix type="matrix" values="0 0 0 0 0 0 0 0 0 0 0 0 0 0 0 0 0 0 0.25 0"/>
<feBlend mode="normal" in2="BackgroundImageFix" result="effect1_dropShadow_9_11"/>
<feBlend mode="normal" in="SourceGraphic" in2="effect1_dropShadow_9_11" result="shape"/>
</filter>
<filter id="filter1_d_9_11" x="73.5284" y="48.8604" width="177.539" height="127.004" filterUnits="userSpaceOnUse" color-interpolation-filters="sRGB">
<feFlood flood-opacity="0" result="BackgroundImageFix"/>
<feColorMatrix in="SourceAlpha" type="matrix" values="0 0 0 0 0 0 0 0 0 0 0 0 0 0 0 0 0 0 127 0" result="hardAlpha"/>
<feOffset dy="4"/>
<feGaussianBlur stdDeviation="2"/>
<feComposite in2="hardAlpha" operator="out"/>
<feColorMatrix type="matrix" values="0 0 0 0 0 0 0 0 0 0 0 0 0 0 0 0 0 0 0.25 0"/>
<feBlend mode="normal" in2="BackgroundImageFix" result="effect1_dropShadow_9_11"/>
<feBlend mode="normal" in="SourceGraphic" in2="effect1_dropShadow_9_11" result="shape"/>
</filter>
<filter id="filter2_d_9_11" x="0" y="129" width="107.553" height="108" filterUnits="userSpaceOnUse" color-interpolation-filters="sRGB">
<feFlood flood-opacity="0" result="BackgroundImageFix"/>
<feColorMatrix in="SourceAlpha" type="matrix" values="0 0 0 0 0 0 0 0 0 0 0 0 0 0 0 0 0 0 127 0" result="hardAlpha"/>
<feOffset dy="4"/>
<feGaussianBlur stdDeviation="2"/>
<feComposite in2="hardAlpha" operator="out"/>
<feColorMatrix type="matrix" values="0 0 0 0 0 0 0 0 0 0 0 0 0 0 0 0 0 0 0.25 0"/>
<feBlend mode="normal" in2="BackgroundImageFix" result="effect1_dropShadow_9_11"/>
<feBlend mode="normal" in="SourceGraphic" in2="effect1_dropShadow_9_11" result="shape"/>
</filter>
<filter id="filter3_d_9_11" x="221.008" y="179" width="107.553" height="108" filterUnits="userSpaceOnUse" color-interpolation-filters="sRGB">
<feFlood flood-opacity="0" result="BackgroundImageFix"/>
<feColorMatrix in="SourceAlpha" type="matrix" values="0 0 0 0 0 0 0 0 0 0 0 0 0 0 0 0 0 0 127 0" result="hardAlpha"/>
<feOffset dy="4"/>
<feGaussianBlur stdDeviation="2"/>
<feComposite in2="hardAlpha" operator="out"/>
<feColorMatrix type="matrix" values="0 0 0 0 0 0 0 0 0 0 0 0 0 0 0 0 0 0 0.25 0"/>
<feBlend mode="normal" in2="BackgroundImageFix" result="effect1_dropShadow_9_11"/>
<feBlend mode="normal" in="SourceGraphic" in2="effect1_dropShadow_9_11" result="shape"/>
</filter>
<filter id="filter4_d_9_11" x="186.164" y="0" width="107.553" height="108" filterUnits="userSpaceOnUse" color-interpolation-filters="sRGB">
<feFlood flood-opacity="0" result="BackgroundImageFix"/>
<feColorMatrix in="SourceAlpha" type="matrix" values="0 0 0 0 0 0 0 0 0 0 0 0 0 0 0 0 0 0 127 0" result="hardAlpha"/>
<feOffset dy="4"/>
<feGaussianBlur stdDeviation="2"/>
<feComposite in2="hardAlpha" operator="out"/>
<feColorMatrix type="matrix" values="0 0 0 0 0 0 0 0 0 0 0 0 0 0 0 0 0 0 0.25 0"/>
<feBlend mode="normal" in2="BackgroundImageFix" result="effect1_dropShadow_9_11"/>
<feBlend mode="normal" in="SourceGraphic" in2="effect1_dropShadow_9_11" result="shape"/>
</filter>
<linearGradient id="paint0_linear_9_11" x1="0" y1="0.5" x2="209.336" y2="0.5" gradientUnits="userSpaceOnUse">
<stop stop-color="white"/>
</linearGradient>
<linearGradient id="paint1_linear_9_11" x1="0" y1="0.5" x2="199.35" y2="0.5" gradientUnits="userSpaceOnUse">
<stop stop-color="white"/>
</linearGradient>
</defs>
</svg>
