<svg width="1068" height="287" viewBox="0 0 1068 287" fill="none" xmlns="http://www.w3.org/2000/svg">
<path d="M418.266 132.771H382.182V149.324H413.773V161.824H382.182V192H367.24V120.125H418.266V132.771ZM427.543 120.027H441.459V192H427.543V120.027ZM499.467 145.516C503.959 151.147 506.205 157.804 506.205 165.486C506.205 173.299 503.959 179.988 499.467 185.555C494.975 191.089 488.155 193.855 479.008 193.855C469.861 193.855 463.041 191.089 458.549 185.555C454.057 179.988 451.811 173.299 451.811 165.486C451.811 157.804 454.057 151.147 458.549 145.516C463.041 139.884 469.861 137.068 479.008 137.068C488.155 137.068 494.975 139.884 499.467 145.516ZM478.959 148.836C474.89 148.836 471.749 150.285 469.535 153.182C467.354 156.046 466.264 160.148 466.264 165.486C466.264 170.825 467.354 174.943 469.535 177.84C471.749 180.737 474.89 182.186 478.959 182.186C483.028 182.186 486.153 180.737 488.334 177.84C490.515 174.943 491.605 170.825 491.605 165.486C491.605 160.148 490.515 156.046 488.334 153.182C486.153 150.285 483.028 148.836 478.959 148.836ZM556.596 192L548.246 153.23L539.799 192H525.346L510.404 138.777H525.346L533.646 176.961L541.312 138.777H555.424L563.529 177.107L571.83 138.777H586.332L570.902 192H556.596ZM621.293 181.6C624.841 181.6 627.722 181.209 629.936 180.428C634.135 178.93 636.234 176.147 636.234 172.078C636.234 169.702 635.193 167.863 633.109 166.561C631.026 165.291 627.755 164.168 623.295 163.191L615.678 161.482C608.191 159.79 603.015 157.951 600.15 155.965C595.3 152.645 592.875 147.452 592.875 140.389C592.875 133.943 595.219 128.589 599.906 124.324C604.594 120.06 611.479 117.928 620.561 117.928C628.145 117.928 634.607 119.946 639.945 123.982C645.316 127.986 648.132 133.813 648.393 141.463H633.939C633.679 137.133 631.791 134.057 628.275 132.234C625.932 131.03 623.018 130.428 619.535 130.428C615.661 130.428 612.569 131.209 610.258 132.771C607.947 134.334 606.791 136.515 606.791 139.314C606.791 141.886 607.93 143.807 610.209 145.076C611.674 145.923 614.799 146.915 619.584 148.055L631.986 151.033C637.423 152.335 641.524 154.077 644.291 156.258C648.588 159.643 650.736 164.542 650.736 170.955C650.736 177.531 648.214 182.999 643.168 187.361C638.155 191.691 631.059 193.855 621.879 193.855C612.504 193.855 605.131 191.723 599.76 187.459C594.389 183.162 591.703 177.27 591.703 169.783H606.059C606.514 173.071 607.41 175.529 608.744 177.156C611.186 180.118 615.368 181.6 621.293 181.6ZM705.326 144.49C709.623 149.08 711.771 155.818 711.771 164.705C711.771 174.08 709.656 181.225 705.424 186.141C701.225 191.056 695.805 193.514 689.164 193.514C684.932 193.514 681.417 192.456 678.617 190.34C677.087 189.168 675.59 187.459 674.125 185.213V212.947H660.355V138.777H673.686V146.639C675.183 144.327 676.778 142.505 678.471 141.17C681.563 138.794 685.242 137.605 689.506 137.605C695.723 137.605 700.997 139.9 705.326 144.49ZM697.416 165.389C697.416 161.287 696.472 157.658 694.584 154.5C692.729 151.342 689.701 149.764 685.502 149.764C680.456 149.764 676.99 152.156 675.102 156.941C674.125 159.48 673.637 162.703 673.637 166.609C673.637 172.794 675.281 177.14 678.568 179.646C680.521 181.111 682.833 181.844 685.502 181.844C689.376 181.844 692.322 180.346 694.34 177.352C696.391 174.357 697.416 170.369 697.416 165.389ZM723.881 144.539C727.559 139.852 733.874 137.508 742.826 137.508C748.653 137.508 753.829 138.663 758.354 140.975C762.878 143.286 765.141 147.648 765.141 154.061V178.475C765.141 180.167 765.173 182.218 765.238 184.627C765.336 186.45 765.613 187.687 766.068 188.338C766.524 188.989 767.208 189.526 768.119 189.949V192H752.982C752.559 190.926 752.266 189.917 752.104 188.973C751.941 188.029 751.811 186.954 751.713 185.75C749.792 187.833 747.579 189.607 745.072 191.072C742.077 192.798 738.692 193.66 734.916 193.66C730.098 193.66 726.111 192.293 722.953 189.559C719.828 186.792 718.266 182.885 718.266 177.84C718.266 171.297 720.788 166.561 725.834 163.631C728.601 162.036 732.67 160.896 738.041 160.213L742.777 159.627C745.349 159.301 747.188 158.895 748.295 158.406C750.281 157.56 751.273 156.242 751.273 154.451C751.273 152.27 750.508 150.773 748.979 149.959C747.481 149.113 745.268 148.689 742.338 148.689C739.05 148.689 736.723 149.503 735.355 151.131C734.379 152.335 733.728 153.963 733.402 156.014H719.975C720.268 151.359 721.57 147.534 723.881 144.539ZM734.232 181.941C735.535 183.016 737.13 183.553 739.018 183.553C742.012 183.553 744.763 182.674 747.27 180.916C749.809 179.158 751.127 175.952 751.225 171.297V166.121C750.346 166.674 749.451 167.13 748.539 167.488C747.66 167.814 746.439 168.123 744.877 168.416L741.752 169.002C738.822 169.523 736.723 170.158 735.453 170.906C733.305 172.176 732.23 174.145 732.23 176.814C732.23 179.191 732.898 180.9 734.232 181.941ZM823.588 157.869H809.33C809.07 155.883 808.402 154.093 807.328 152.498C805.766 150.35 803.34 149.275 800.053 149.275C795.365 149.275 792.159 151.603 790.434 156.258C789.522 158.732 789.066 162.02 789.066 166.121C789.066 170.027 789.522 173.169 790.434 175.545C792.094 179.972 795.219 182.186 799.809 182.186C803.064 182.186 805.375 181.307 806.742 179.549C808.109 177.791 808.939 175.512 809.232 172.713H823.441C823.116 176.945 821.586 180.949 818.852 184.725C814.49 190.812 808.028 193.855 799.467 193.855C790.906 193.855 784.607 191.316 780.57 186.238C776.534 181.16 774.516 174.568 774.516 166.463C774.516 157.316 776.745 150.203 781.205 145.125C785.665 140.047 791.817 137.508 799.662 137.508C806.335 137.508 811.788 139.005 816.02 142C820.284 144.995 822.807 150.285 823.588 157.869ZM878.764 176.375C878.406 179.533 876.762 182.739 873.832 185.994C869.275 191.17 862.895 193.758 854.691 193.758C847.921 193.758 841.947 191.577 836.771 187.215C831.596 182.853 829.008 175.757 829.008 165.926C829.008 156.714 831.335 149.65 835.99 144.734C840.678 139.819 846.749 137.361 854.203 137.361C858.63 137.361 862.618 138.191 866.166 139.852C869.714 141.512 872.644 144.132 874.955 147.713C877.038 150.87 878.389 154.533 879.008 158.699C879.366 161.141 879.512 164.656 879.447 169.246H843.021C843.217 174.585 844.893 178.328 848.051 180.477C849.971 181.811 852.283 182.479 854.984 182.479C857.849 182.479 860.176 181.665 861.967 180.037C862.943 179.158 863.806 177.938 864.555 176.375H878.764ZM864.994 160.066C864.766 156.388 863.643 153.605 861.625 151.717C859.639 149.796 857.165 148.836 854.203 148.836C850.98 148.836 848.474 149.845 846.684 151.863C844.926 153.882 843.819 156.616 843.363 160.066H864.994Z" fill="#0F0E0E"/>
<g filter="url(#filter0_d_9_12)">
<line x1="278.204" y1="220.801" x2="91.8007" y2="182.796" stroke="url(#paint0_linear_9_12)" stroke-width="20" stroke-linecap="round"/>
</g>
<g filter="url(#filter1_d_9_12)">
<line x1="238.15" y1="58.8519" x2="87.8519" y2="157.85" stroke="url(#paint1_linear_9_12)" stroke-width="20" stroke-linecap="round"/>
</g>
<g filter="url(#filter2_d_9_12)">
<circle cx="54" cy="179" r="50" fill="black"/>
</g>
<g filter="url(#filter3_d_9_12)">
<circle cx="276" cy="229" r="50" fill="black"/>
</g>
<g filter="url(#filter4_d_9_12)">
<circle cx="241" cy="50" r="50" fill="black"/>
</g>
<defs>
<filter id="filter0_d_9_12" x="77.7987" y="172.794" width="214.407" height="66.0085" filterUnits="userSpaceOnUse" color-interpolation-filters="sRGB">
<feFlood flood-opacity="0" result="BackgroundImageFix"/>
<feColorMatrix in="SourceAlpha" type="matrix" values="0 0 0 0 0 0 0 0 0 0 0 0 0 0 0 0 0 0 127 0" result="hardAlpha"/>
<feOffset dy="4"/>
<feGaussianBlur stdDeviation="2"/>
<feComposite in2="hardAlpha" operator="out"/>
<feColorMatrix type="matrix" values="0 0 0 0 0 0 0 0 0 0 0 0 0 0 0 0 0 0 0.25 0"/>
<feBlend mode="normal" in2="BackgroundImageFix" result="effect1_dropShadow_9_12"/>
<feBlend mode="normal" in="SourceGraphic" in2="effect1_dropShadow_9_12" result="shape"/>
</filter>
<filter id="filter1_d_9_12" x="73.8508" y="48.8508" width="178.3" height="127.001" filterUnits="userSpaceOnUse" color-interpolation-filters="sRGB">
<feFlood flood-opacity="0" result="BackgroundImageFix"/>
<feColorMatrix in="SourceAlpha" type="matrix" values="0 0 0 0 0 0 0 0 0 0 0 0 0 0 0 0 0 0 127 0" result="hardAlpha"/>
<feOffset dy="4"/>
<feGaussianBlur stdDeviation="2"/>
<feComposite in2="hardAlpha" operator="out"/>
<feColorMatrix type="matrix" values="0 0 0 0 0 0 0 0 0 0 0 0 0 0 0 0 0 0 0.25 0"/>
<feBlend mode="normal" in2="BackgroundImageFix" result="effect1_dropShadow_9_12"/>
<feBlend mode="normal" in="SourceGraphic" in2="effect1_dropShadow_9_12" result="shape"/>
</filter>
<filter id="filter2_d_9_12" x="0" y="129" width="108" height="108" filterUnits="userSpaceOnUse" color-interpolation-filters="sRGB">
<feFlood flood-opacity="0" result="BackgroundImageFix"/>
<feColorMatrix in="SourceAlpha" type="matrix" values="0 0 0 0 0 0 0 0 0 0 0 0 0 0 0 0 0 0 127 0" result="hardAlpha"/>
<feOffset dy="4"/>
<feGaussianBlur stdDeviation="2"/>
<feComposite in2="hardAlpha" operator="out"/>
<feColorMatrix type="matrix" values="0 0 0 0 0 0 0 0 0 0 0 0 0 0 0 0 0 0 0.25 0"/>
<feBlend mode="normal" in2="BackgroundImageFix" result="effect1_dropShadow_9_12"/>
<feBlend mode="normal" in="SourceGraphic" in2="effect1_dropShadow_9_12" result="shape"/>
</filter>
<filter id="filter3_d_9_12" x="222" y="179" width="108" height="108" filterUnits="userSpaceOnUse" color-interpolation-filters="sRGB">
<feFlood flood-opacity="0" result="BackgroundImageFix"/>
<feColorMatrix in="SourceAlpha" type="matrix" values="0 0 0 0 0 0 0 0 0 0 0 0 0 0 0 0 0 0 127 0" result="hardAlpha"/>
<feOffset dy="4"/>
<feGaussianBlur stdDeviation="2"/>
<feComposite in2="hardAlpha" operator="out"/>
<feColorMatrix type="matrix" values="0 0 0 0 0 0 0 0 0 0 0 0 0 0 0 0 0 0 0.25 0"/>
<feBlend mode="normal" in2="BackgroundImageFix" result="effect1_dropShadow_9_12"/>
<feBlend mode="normal" in="SourceGraphic" in2="effect1_dropShadow_9_12" result="shape"/>
</filter>
<filter id="filter4_d_9_12" x="187" y="0" width="108" height="108" filterUnits="userSpaceOnUse" color-interpolation-filters="sRGB">
<feFlood flood-opacity="0" result="BackgroundImageFix"/>
<feColorMatrix in="SourceAlpha" type="matrix" values="0 0 0 0 0 0 0 0 0 0 0 0 0 0 0 0 0 0 127 0" result="hardAlpha"/>
<feOffset dy="4"/>
<feGaussianBlur stdDeviation="2"/>
<feComposite in2="hardAlpha" operator="out"/>
<feColorMatrix type="matrix" values="0 0 0 0 0 0 0 0 0 0 0 0 0 0 0 0 0 0 0.25 0"/>
<feBlend mode="normal" in2="BackgroundImageFix" result="effect1_dropShadow_9_12"/>
<feBlend mode="normal" in="SourceGraphic" in2="effect1_dropShadow_9_12" result="shape"/>
</filter>
<linearGradient id="paint0_linear_9_12" x1="290.1" y1="212.51" x2="84.0999" y2="170.51" gradientUnits="userSpaceOnUse">
<stop offset="0.860577"/>
<stop offset="1"/>
</linearGradient>
<linearGradient id="paint1_linear_9_12" x1="240.725" y1="44.5824" x2="73.725" y2="154.582" gradientUnits="userSpaceOnUse">
<stop/>
<stop offset="1" stop-color="#222933"/>
</linearGradient>
</defs>
</svg>
